<svg xmlns="http://www.w3.org/2000/svg" xmlns:xlink="http://www.w3.org/1999/xlink" width="20" zoomAndPan="magnify" viewBox="0 0 375 374.999991" height="20" preserveAspectRatio="xMidYMid meet" version="1.0"><defs><filter x="0%" y="0%" width="100%" height="100%" id="a7aa262a13"><feColorMatrix values="0 0 0 0 1 0 0 0 0 1 0 0 0 0 1 0 0 0 1 0" color-interpolation-filters="sRGB"/></filter><clipPath id="9df43aea1d"><path d="M 22.625 238.898438 L 120.835938 238.898438 L 120.835938 337.105469 L 22.625 337.105469 Z M 22.625 238.898438 " clip-rule="nonzero"/></clipPath><clipPath id="f66262936f"><path d="M 36.125 238.898438 L 107.335938 238.898438 C 114.789062 238.898438 120.835938 244.941406 120.835938 252.398438 L 120.835938 323.605469 C 120.835938 331.0625 114.789062 337.105469 107.335938 337.105469 L 36.125 337.105469 C 28.671875 337.105469 22.625 331.0625 22.625 323.605469 L 22.625 252.398438 C 22.625 244.941406 28.671875 238.898438 36.125 238.898438 Z M 36.125 238.898438 " clip-rule="nonzero"/></clipPath><mask id="38147c2c14"><g filter="url(#a7aa262a13)"><rect x="-37.5" width="450" fill="#000000" y="-37.499999" height="449.999989" fill-opacity="0.2"/></g></mask><clipPath id="16efc632d8"><path d="M 0.195312 0.90625 L 98.402344 0.90625 L 98.402344 198.472656 L 0.195312 198.472656 Z M 0.195312 0.90625 " clip-rule="nonzero"/></clipPath><clipPath id="32728860b0"><path d="M 13.695312 0.90625 L 84.902344 0.90625 C 92.359375 0.90625 98.402344 6.949219 98.402344 14.40625 L 98.402344 184.605469 C 98.402344 192.0625 92.359375 198.105469 84.902344 198.105469 L 13.695312 198.105469 C 6.238281 198.105469 0.195312 192.0625 0.195312 184.605469 L 0.195312 14.40625 C 0.195312 6.949219 6.238281 0.90625 13.695312 0.90625 Z M 13.695312 0.90625 " clip-rule="nonzero"/></clipPath><clipPath id="ccf2d807ca"><rect x="0" width="99" y="0" height="199"/></clipPath><mask id="29f17aae88"><g filter="url(#a7aa262a13)"><rect x="-37.5" width="450" fill="#000000" y="-37.499999" height="449.999989" fill-opacity="0.2"/></g></mask><clipPath id="b400877835"><path d="M 0.164062 0.304688 L 98.375 0.304688 L 98.375 296.847656 L 0.164062 296.847656 Z M 0.164062 0.304688 " clip-rule="nonzero"/></clipPath><clipPath id="75b25a171f"><path d="M 13.664062 0.304688 L 84.875 0.304688 C 92.328125 0.304688 98.375 6.347656 98.375 13.804688 L 98.375 283 C 98.375 290.457031 92.328125 296.5 84.875 296.5 L 13.664062 296.5 C 6.210938 296.5 0.164062 290.457031 0.164062 283 L 0.164062 13.804688 C 0.164062 6.347656 6.210938 0.304688 13.664062 0.304688 Z M 13.664062 0.304688 " clip-rule="nonzero"/></clipPath><clipPath id="06a5d549b3"><rect x="0" width="99" y="0" height="297"/></clipPath></defs><g clip-path="url(#9df43aea1d)"><g clip-path="url(#f66262936f)"><path fill="#000000" d="M 22.625 238.898438 L 120.835938 238.898438 L 120.835938 337.105469 L 22.625 337.105469 Z M 22.625 238.898438 " fill-opacity="1" fill-rule="nonzero"/></g></g><g mask="url(#38147c2c14)"><g transform="matrix(1, 0, 0, 1, 138, 139)"><g clip-path="url(#ccf2d807ca)"><g clip-path="url(#16efc632d8)"><g clip-path="url(#32728860b0)"><path fill="#000000" d="M 0.195312 0.90625 L 98.402344 0.90625 L 98.402344 198.089844 L 0.195312 198.089844 Z M 0.195312 0.90625 " fill-opacity="1" fill-rule="nonzero"/></g></g></g></g></g><g mask="url(#29f17aae88)"><g transform="matrix(1, 0, 0, 1, 254, 41)"><g clip-path="url(#06a5d549b3)"><g clip-path="url(#b400877835)"><g clip-path="url(#75b25a171f)"><path fill="#000000" d="M 0.164062 0.304688 L 98.375 0.304688 L 98.375 296.464844 L 0.164062 296.464844 Z M 0.164062 0.304688 " fill-opacity="1" fill-rule="nonzero"/></g></g></g></g></g></svg>