<svg xmlns="http://www.w3.org/2000/svg" xmlns:xlink="http://www.w3.org/1999/xlink" width="20" zoomAndPan="magnify" viewBox="0 0 375 374.999991" height="20" preserveAspectRatio="xMidYMid meet" version="1.0"><defs><filter x="0%" y="0%" width="100%" height="100%" id="b89be2e285"><feColorMatrix values="0 0 0 0 1 0 0 0 0 1 0 0 0 0 1 0 0 0 1 0" color-interpolation-filters="sRGB"/></filter><clipPath id="292e7763ac"><path d="M 22.625 236.996094 L 120.835938 236.996094 L 120.835938 335.207031 L 22.625 335.207031 Z M 22.625 236.996094 " clip-rule="nonzero"/></clipPath><clipPath id="d3c3a2bcea"><path d="M 36.125 236.996094 L 107.335938 236.996094 C 114.789062 236.996094 120.835938 243.042969 120.835938 250.496094 L 120.835938 321.707031 C 120.835938 329.160156 114.789062 335.207031 107.335938 335.207031 L 36.125 335.207031 C 28.671875 335.207031 22.625 329.160156 22.625 321.707031 L 22.625 250.496094 C 22.625 243.042969 28.671875 236.996094 36.125 236.996094 Z M 36.125 236.996094 " clip-rule="nonzero"/></clipPath><clipPath id="9f435775f1"><path d="M 138.195312 138.003906 L 236.402344 138.003906 L 236.402344 335.570312 L 138.195312 335.570312 Z M 138.195312 138.003906 " clip-rule="nonzero"/></clipPath><clipPath id="311492af6e"><path d="M 151.695312 138.003906 L 222.902344 138.003906 C 230.359375 138.003906 236.402344 144.046875 236.402344 151.503906 L 236.402344 321.707031 C 236.402344 329.160156 230.359375 335.207031 222.902344 335.207031 L 151.695312 335.207031 C 144.238281 335.207031 138.195312 329.160156 138.195312 321.707031 L 138.195312 151.503906 C 138.195312 144.046875 144.238281 138.003906 151.695312 138.003906 Z M 151.695312 138.003906 " clip-rule="nonzero"/></clipPath><mask id="13b1dbb7f8"><g filter="url(#b89be2e285)"><rect x="-37.5" width="450" fill="#000000" y="-37.499999" height="449.999989" fill-opacity="0.2"/></g></mask><clipPath id="e2a0c03c7c"><path d="M 0.164062 0.402344 L 98.375 0.402344 L 98.375 296.945312 L 0.164062 296.945312 Z M 0.164062 0.402344 " clip-rule="nonzero"/></clipPath><clipPath id="7d064be21b"><path d="M 13.664062 0.402344 L 84.875 0.402344 C 92.328125 0.402344 98.375 6.445312 98.375 13.902344 L 98.375 283.097656 C 98.375 290.554688 92.328125 296.597656 84.875 296.597656 L 13.664062 296.597656 C 6.210938 296.597656 0.164062 290.554688 0.164062 283.097656 L 0.164062 13.902344 C 0.164062 6.445312 6.210938 0.402344 13.664062 0.402344 Z M 13.664062 0.402344 " clip-rule="nonzero"/></clipPath><clipPath id="72e27fa123"><rect x="0" width="99" y="0" height="297"/></clipPath></defs><g clip-path="url(#292e7763ac)"><g clip-path="url(#d3c3a2bcea)"><path fill="#af6f2c" d="M 22.625 236.996094 L 120.835938 236.996094 L 120.835938 335.207031 L 22.625 335.207031 Z M 22.625 236.996094 " fill-opacity="1" fill-rule="nonzero"/></g></g><g clip-path="url(#9f435775f1)"><g clip-path="url(#311492af6e)"><path fill="#af6f2c" d="M 138.195312 138.003906 L 236.402344 138.003906 L 236.402344 335.1875 L 138.195312 335.1875 Z M 138.195312 138.003906 " fill-opacity="1" fill-rule="nonzero"/></g></g><g mask="url(#13b1dbb7f8)"><g transform="matrix(1, 0, 0, 1, 254, 39)"><g clip-path="url(#72e27fa123)"><g clip-path="url(#e2a0c03c7c)"><g clip-path="url(#7d064be21b)"><path fill="#af6f2c" d="M 0.164062 0.402344 L 98.375 0.402344 L 98.375 296.5625 L 0.164062 296.5625 Z M 0.164062 0.402344 " fill-opacity="1" fill-rule="nonzero"/></g></g></g></g></g></svg>