<svg xmlns="http://www.w3.org/2000/svg" xmlns:xlink="http://www.w3.org/1999/xlink" width="20" zoomAndPan="magnify" viewBox="0 0 375 374.999991" height="20" preserveAspectRatio="xMidYMid meet" version="1.0"><defs><clipPath id="e3fa46e03b"><path d="M 22.625 236.996094 L 120.835938 236.996094 L 120.835938 335.207031 L 22.625 335.207031 Z M 22.625 236.996094 " clip-rule="nonzero"/></clipPath><clipPath id="3cece57a6d"><path d="M 36.125 236.996094 L 107.335938 236.996094 C 114.789062 236.996094 120.835938 243.042969 120.835938 250.496094 L 120.835938 321.707031 C 120.835938 329.160156 114.789062 335.207031 107.335938 335.207031 L 36.125 335.207031 C 28.671875 335.207031 22.625 329.160156 22.625 321.707031 L 22.625 250.496094 C 22.625 243.042969 28.671875 236.996094 36.125 236.996094 Z M 36.125 236.996094 " clip-rule="nonzero"/></clipPath><clipPath id="e7da6218dd"><path d="M 138.195312 138.003906 L 236.402344 138.003906 L 236.402344 335.570312 L 138.195312 335.570312 Z M 138.195312 138.003906 " clip-rule="nonzero"/></clipPath><clipPath id="4f16ddd0bb"><path d="M 151.695312 138.003906 L 222.902344 138.003906 C 230.359375 138.003906 236.402344 144.046875 236.402344 151.503906 L 236.402344 321.707031 C 236.402344 329.160156 230.359375 335.207031 222.902344 335.207031 L 151.695312 335.207031 C 144.238281 335.207031 138.195312 329.160156 138.195312 321.707031 L 138.195312 151.503906 C 138.195312 144.046875 144.238281 138.003906 151.695312 138.003906 Z M 151.695312 138.003906 " clip-rule="nonzero"/></clipPath><clipPath id="e079dc5e11"><path d="M 254.164062 39.402344 L 352.375 39.402344 L 352.375 335.945312 L 254.164062 335.945312 Z M 254.164062 39.402344 " clip-rule="nonzero"/></clipPath><clipPath id="a5e45ee700"><path d="M 267.664062 39.402344 L 338.875 39.402344 C 346.328125 39.402344 352.375 45.445312 352.375 52.902344 L 352.375 322.097656 C 352.375 329.554688 346.328125 335.597656 338.875 335.597656 L 267.664062 335.597656 C 260.210938 335.597656 254.164062 329.554688 254.164062 322.097656 L 254.164062 52.902344 C 254.164062 45.445312 260.210938 39.402344 267.664062 39.402344 Z M 267.664062 39.402344 " clip-rule="nonzero"/></clipPath></defs><g clip-path="url(#e3fa46e03b)"><g clip-path="url(#3cece57a6d)"><path fill="#ff0000" d="M 22.625 236.996094 L 120.835938 236.996094 L 120.835938 335.207031 L 22.625 335.207031 Z M 22.625 236.996094 " fill-opacity="1" fill-rule="nonzero"/></g></g><g clip-path="url(#e7da6218dd)"><g clip-path="url(#4f16ddd0bb)"><path fill="#ff0000" d="M 138.195312 138.003906 L 236.402344 138.003906 L 236.402344 335.1875 L 138.195312 335.1875 Z M 138.195312 138.003906 " fill-opacity="1" fill-rule="nonzero"/></g></g><g clip-path="url(#e079dc5e11)"><g clip-path="url(#a5e45ee700)"><path fill="#ff0000" d="M 254.164062 39.402344 L 352.375 39.402344 L 352.375 335.5625 L 254.164062 335.5625 Z M 254.164062 39.402344 " fill-opacity="1" fill-rule="nonzero"/></g></g></svg>