<svg xmlns="http://www.w3.org/2000/svg" xmlns:xlink="http://www.w3.org/1999/xlink" width="20" zoomAndPan="magnify" viewBox="0 0 375 374.999991" height="20" preserveAspectRatio="xMidYMid meet" version="1.0"><defs><g/></defs><g fill="#ffffff" fill-opacity="1"><g transform="translate(132.403693, 310.57328)"><g><path d="M 76.625 -83.3125 L 33.671875 -83.3125 L 30.234375 -251.15625 L 80.046875 -251.15625 Z M 55.140625 1.71875 C 49.191406 1.71875 43.953125 0.515625 39.421875 -1.890625 C 34.898438 -4.296875 31.40625 -7.613281 28.9375 -11.84375 C 26.476562 -16.082031 25.25 -20.835938 25.25 -26.109375 C 25.25 -31.492188 26.476562 -36.332031 28.9375 -40.625 C 31.40625 -44.925781 34.898438 -48.273438 39.421875 -50.671875 C 43.953125 -53.078125 49.191406 -54.28125 55.140625 -54.28125 C 64.078125 -54.28125 71.265625 -51.644531 76.703125 -46.375 C 82.140625 -41.113281 84.859375 -34.414062 84.859375 -26.28125 C 84.859375 -18.15625 82.140625 -11.457031 76.703125 -6.1875 C 71.265625 -0.914062 64.078125 1.71875 55.140625 1.71875 Z M 55.140625 1.71875 "/></g></g></g></svg>